0
SECTION
2
HEADER
9
$INSUNITS
70
4
9
$ACADVER
1
AC1014
9
$HANDSEED
5
FFFF
0
ENDSEC
0
SECTION
2
TABLES
0
TABLE
2
VPORT
5
8
100
AcDbSymbolTable
0
ENDTAB
0
TABLE
2
LTYPE
5
5
100
AcDbSymbolTable
0
LTYPE
5
14
100
AcDbSymbolTableRecord
100
AcDbLinetypeTableRecord
2
BYBLOCK
70
0
0
LTYPE
5
15
100
AcDbSymbolTableRecord
100
AcDbLinetypeTableRecord
2
BYLAYER
70
0
0
ENDTAB
0
TABLE
2
LAYER
5
2
100
AcDbSymbolTable
70
2
0
LAYER
5
50
100
AcDbSymbolTableRecord
100
AcDbLayerTableRecord
2
0
70
0
6
CONTINUOUS
0
ENDTAB
0
TABLE
2
STYLE
5
3
100
AcDbSymbolTable
70
1
0
STYLE
5
11
100
AcDbSymbolTableRecord
100
AcDbTextStyleTableRecord
2
STANDARD
70
0
0
ENDTAB
0
TABLE
2
VIEW
5
6
100
AcDbSymbolTable
70
0
0
ENDTAB
0
TABLE
2
UCS
5
7
100
AcDbSymbolTable
70
0
0
ENDTAB
0
TABLE
2
APPID
5
9
100
AcDbSymbolTable
70
2
0
APPID
5
12
100
AcDbSymbolTableRecord
100
AcDbRegAppTableRecord
2
ACAD
70
0
0
ENDTAB
0
TABLE
2
DIMSTYLE
5
A
100
AcDbSymbolTable
70
1
0
ENDTAB
0
TABLE
2
BLOCK_RECORD
5
1
100
AcDbSymbolTable
70
1
0
BLOCK_RECORD
5
1F
100
AcDbSymbolTableRecord
100
AcDbBlockTableRecord
2
*MODEL_SPACE
0
BLOCK_RECORD
5
1B
100
AcDbSymbolTableRecord
100
AcDbBlockTableRecord
2
*PAPER_SPACE
0
ENDTAB
0
ENDSEC
0
SECTION
2
BLOCKS
0
BLOCK
5
20
100
AcDbEntity
100
AcDbBlockBegin
2
*MODEL_SPACE
0
ENDBLK
5
21
100
AcDbEntity
100
AcDbBlockEnd
0
BLOCK
5
1C
100
AcDbEntity
100
AcDbBlockBegin
2
*PAPER_SPACE
0
ENDBLK
5
1D
100
AcDbEntity
100
AcDbBlockEnd
0
ENDSEC
0
SECTION
2
ENTITIES
0
LWPOLYLINE
5
100
100
AcDbEntity
8
0
100
AcDbPolyline
90
5
70
1
43
0.0
10
0
20
400
10
-470
20
400
42
0.41421356237309559
10
-600
20
270
10
-600
20
0
10
0
20
0
0
LWPOLYLINE
5
101
100
AcDbEntity
8
0
100
AcDbPolyline
90
4
70
1
43
0.0
10
-508
20
398
10
-32.999999999999972
20
398
10
-32.999999999999972
20
116.99999999999996
10
-508
20
116.99999999999996
0
LWPOLYLINE
5
102
100
AcDbEntity
8
0
100
AcDbPolyline
90
4
70
1
43
0.0
10
-483
20
383.49999999999994
10
-57.999999999999972
20
383.49999999999994
10
-57.999999999999972
20
131.49999999999991
10
-483
20
131.49999999999991
0
LINE
5
103
100
AcDbEntity
8
0
100
AcDbLine
10
-214.80000000000004
20
361.80882000000003
30
1.1102230246251565e-15
11
-214.80000000000004
21
361.80882000000003
31
2.5
0
LINE
5
104
100
AcDbEntity
8
0
100
AcDbLine
10
-211
20
362.5
30
1.1102230246251565e-15
11
-211
21
362.5
31
8.0000000000000018
0
LINE
5
105
100
AcDbEntity
8
0
100
AcDbLine
10
-310.00000000000006
20
362.50000000000006
30
1.1102230246251565e-15
11
-310.98230000000001
21
361.51772000000005
31
8.0000000000000036
0
LINE
5
106
100
AcDbEntity
8
0
100
AcDbLine
10
-211
20
377.5
30
1.1102230246251565e-15
11
-211
21
377.5
31
8.0000000000000018
0
LINE
5
107
100
AcDbEntity
8
0
100
AcDbLine
10
-310.00000000000006
20
362.50000000000006
30
1.1102230246251565e-15
11
-310.98230000000001
21
361.51772000000005
31
8.0000000000000036
0
LINE
5
108
100
AcDbEntity
8
0
100
AcDbLine
10
-211
20
362.5
30
1.1102230246251565e-15
11
-211
21
362.5
31
8.0000000000000018
0
LINE
5
109
100
AcDbEntity
8
0
100
AcDbLine
10
-214.80000000000004
20
362.5
30
1.1102230246251565e-15
11
-214.80000000000004
21
362.5
31
2.5000000000000009
0
LINE
5
110
100
AcDbEntity
8
0
100
AcDbLine
10
-214.80000000000004
20
361.80882000000003
30
2.5
11
-214.79654477228803
21
361.80876311684403
31
7.1974818520923822
0
LINE
5
111
100
AcDbEntity
8
0
100
AcDbLine
10
-313
20
377.49184000000008
30
1.1102230246251565e-15
11
-313
21
362.50816000000009
31
1.1102230246251565e-15
0
LINE
5
112
100
AcDbEntity
8
0
100
AcDbLine
10
-313
20
377.49184000000008
30
8.0000000000000018
11
-313
21
362.50816000000009
31
8.0000000000000018
0
LINE
5
113
100
AcDbEntity
8
0
100
AcDbLine
10
-214.80000000000004
20
361.80882000000003
30
1.1102230246251565e-15
11
-214.80000000000004
21
361.80882000000003
31
2.5
0
LINE
5
114
100
AcDbEntity
8
0
100
AcDbLine
10
-211
20
377.5
30
1.1102230246251565e-15
11
-211
21
377.5
31
8.0000000000000018
0
LINE
5
115
100
AcDbEntity
8
0
100
AcDbLine
10
-313
20
362.50816000000009
30
1.1102230246251565e-15
11
-313
21
362.50816000000009
31
8.0000000000000018
0
LINE
5
116
100
AcDbEntity
8
0
100
AcDbLine
10
-313
20
377.49184000000008
30
1.1102230246251565e-15
11
-313
21
362.50816000000009
31
1.1102230246251565e-15
0
LINE
5
117
100
AcDbEntity
8
0
100
AcDbLine
10
-309.99180000173743
20
359.4999999923192
30
2.2922650360453164e-08
11
-309.99180000131622
21
359.49999999799479
31
8.0000000000525322
0
LINE
5
118
100
AcDbEntity
8
0
100
AcDbLine
10
-214.80000000000004
20
361.80882000000003
30
2.5
11
-214.79654477228803
21
361.80876311684403
31
7.1974818520923822
0
LINE
5
119
100
AcDbEntity
8
0
100
AcDbLine
10
-219.80000000000004
20
361.80882000000003
30
2.5
11
-219.80000104532465
21
361.80866489295676
31
3.6458974072756878e-06
0
LINE
5
120
100
AcDbEntity
8
0
100
AcDbLine
10
-313
20
377.49184000000008
30
1.1102230246251565e-15
11
-313
21
377.49184000000008
31
8.0000000000000018
0
LINE
5
121
100
AcDbEntity
8
0
100
AcDbLine
10
-313
20
377.49184000000008
30
8.0000000000000018
11
-313
21
362.50816000000009
31
8.0000000000000018
0
LINE
5
122
100
AcDbEntity
8
0
100
AcDbLine
10
-219.80000000000004
20
361.80882000000003
30
2.5
11
-219.80000104532465
21
361.80866489295676
31
3.6458974072756878e-06
0
LINE
5
123
100
AcDbEntity
8
0
100
AcDbLine
10
-313
20
377.49184000000008
30
1.1102230246251565e-15
11
-313
21
377.49184000000008
31
8.0000000000000018
0
LINE
5
124
100
AcDbEntity
8
0
100
AcDbLine
10
-214.80000000000004
20
362.5
30
1.1102230246251565e-15
11
-214.80000000000004
21
362.5
31
2.5000000000000009
0
LINE
5
125
100
AcDbEntity
8
0
100
AcDbLine
10
-309.99180000173743
20
359.4999999923192
30
2.2922650360453164e-08
11
-309.99180000131622
21
359.49999999799479
31
8.0000000000525322
0
LINE
5
126
100
AcDbEntity
8
0
100
AcDbLine
10
-313
20
362.50816000000009
30
1.1102230246251565e-15
11
-313
21
362.50816000000009
31
8.0000000000000018
0
LINE
5
127
100
AcDbEntity
8
0
100
AcDbLine
10
-206.25000000000003
20
375
30
5.5511151231257827e-16
11
-206.25000000000003
21
375
31
1.2000000000000006
0
LINE
5
128
100
AcDbEntity
8
0
100
AcDbLine
10
-211
20
365
30
5.5511151231257827e-16
11
-211
21
365
31
1.2000000000000006
0
LINE
5
129
100
AcDbEntity
8
0
100
AcDbLine
10
-206.25000000000003
20
365
30
5.5511151231257827e-16
11
-206.25000000000003
21
365
31
1.2000000000000006
0
LINE
5
130
100
AcDbEntity
8
0
100
AcDbLine
10
-207.05000000000001
20
370
30
4.2000000000000028
11
-207.05000000000001
21
370
31
2.2204460492503131e-15
0
LINE
5
131
100
AcDbEntity
8
0
100
AcDbLine
10
-211
20
365
30
5.5511151231257827e-16
11
-211
21
365
31
1.2000000000000006
0
LINE
5
132
100
AcDbEntity
8
0
100
AcDbLine
10
-211
20
375
30
5.5511151231257827e-16
11
-211
21
375
31
1.2
0
LINE
5
133
100
AcDbEntity
8
0
100
AcDbLine
10
-206.25000000000003
20
365
30
5.5511151231257827e-16
11
-206.25000000000003
21
365
31
1.2000000000000006
0
LINE
5
134
100
AcDbEntity
8
0
100
AcDbLine
10
-211
20
375
30
5.5511151231257827e-16
11
-211
21
375
31
1.2
0
LINE
5
135
100
AcDbEntity
8
0
100
AcDbLine
10
-206.25000000000003
20
375
30
5.5511151231257827e-16
11
-206.25000000000003
21
375
31
1.2000000000000006
0
LINE
5
136
100
AcDbEntity
8
0
100
AcDbLine
10
-209.25000000000006
20
370
30
1.2
11
-209.25000000000006
21
370
31
4.2000000000000002
0
LINE
5
137
100
AcDbEntity
8
0
100
AcDbLine
10
-207.05000000000001
20
370
30
4.2000000000000028
11
-207.05000000000001
21
370
31
2.2204460492503131e-15
0
LINE
5
138
100
AcDbEntity
8
0
100
AcDbLine
10
-209.25000000000006
20
370
30
1.2
11
-209.25000000000006
21
370
31
4.2000000000000002
0
LINE
5
139
100
AcDbEntity
8
0
100
AcDbLine
10
-316.95000000000005
20
370.00000000000006
30
4.2000000000000011
11
-316.95000000000005
21
370.00000000000006
31
1.1102230246251565e-15
0
LINE
5
140
100
AcDbEntity
8
0
100
AcDbLine
10
-313
20
365.00000000000006
30
5.5511151231257827e-16
11
-313
21
365.00000000000006
31
1.2000000000000011
0
LINE
5
141
100
AcDbEntity
8
0
100
AcDbLine
10
-317.75
20
365.00000000000006
30
5.5511151231257827e-16
11
-317.75
21
365.00000000000006
31
1.2000000000000011
0
LINE
5
142
100
AcDbEntity
8
0
100
AcDbLine
10
-313
20
365.00000000000006
30
5.5511151231257827e-16
11
-313
21
365.00000000000006
31
1.2000000000000011
0
LINE
5
143
100
AcDbEntity
8
0
100
AcDbLine
10
-313
20
375.00000000000006
30
5.5511151231257827e-16
11
-313
21
375.00000000000006
31
1.2000000000000006
0
LWPOLYLINE
5
144
100
AcDbEntity
8
0
100
AcDbPolyline
90
2
70
1
43
0.0
10
-313
20
375.00000000000006
10
-313
20
365.00000000000006
0
LINE
5
145
100
AcDbEntity
8
0
100
AcDbLine
10
-317.75
20
375.00000000000006
30
1.1102230246251565e-15
11
-317.75
21
375.00000000000006
31
1.2000000000000011
0
LINE
5
146
100
AcDbEntity
8
0
100
AcDbLine
10
-313
20
375.00000000000006
30
1.2000000000000006
11
-313
21
365.00000000000006
31
1.2000000000000011
0
LINE
5
147
100
AcDbEntity
8
0
100
AcDbLine
10
-314.75
20
370.00000000000006
30
1.2000000000000011
11
-314.75
21
370.00000000000006
31
4.2000000000000011
0
LINE
5
148
100
AcDbEntity
8
0
100
AcDbLine
10
-314.75
20
370.00000000000006
30
1.2000000000000011
11
-314.75
21
370.00000000000006
31
4.2000000000000011
0
LINE
5
149
100
AcDbEntity
8
0
100
AcDbLine
10
-317.75
20
365.00000000000006
30
5.5511151231257827e-16
11
-317.75
21
365.00000000000006
31
1.2000000000000011
0
LINE
5
150
100
AcDbEntity
8
0
100
AcDbLine
10
-313
20
375.00000000000006
30
5.5511151231257827e-16
11
-313
21
375.00000000000006
31
1.2000000000000006
0
LINE
5
151
100
AcDbEntity
8
0
100
AcDbLine
10
-317.75
20
375.00000000000006
30
1.1102230246251565e-15
11
-317.75
21
375.00000000000006
31
1.2000000000000011
0
LINE
5
152
100
AcDbEntity
8
0
100
AcDbLine
10
-316.95000000000005
20
370.00000000000006
30
4.2000000000000011
11
-316.95000000000005
21
370.00000000000006
31
1.1102230246251565e-15
0
LINE
5
153
100
AcDbEntity
8
0
100
AcDbLine
10
-313
20
375.00000000000006
30
1.2000000000000006
11
-313
21
365.00000000000006
31
1.2000000000000011
0
LWPOLYLINE
5
154
100
AcDbEntity
8
0
100
AcDbPolyline
90
8
70
1
43
0.0
10
-213.63877986850963
20
361.29999999999995
10
-310.03877986850961
20
361.29999999999995
42
-0.41421356237308815
10
-313.03877986850966
20
364.29999999999995
10
-313.03877986850966
20
379.30000000000001
42
-0.41421356237308815
10
-310.03877986850961
20
382.29999999999995
10
-213.63877986850969
20
382.2999999999999
42
-0.41421356237309503
10
-210.63877986850963
20
379.29999999999984
10
-210.63877986850957
20
364.29999999999995
42
-0.41421356237308815
0
CIRCLE
5
155
100
AcDbEntity
8
0
100
AcDbCircle
10
-206.25000000000003
20
370
30
1.1102230246251565e-15
40
1.5000000000000002
210
0
220
0
230
1
0
CIRCLE
5
156
100
AcDbEntity
8
0
100
AcDbCircle
10
-317.75
20
370.00000000000006
30
1.1102230246251565e-15
40
1.5000000000000002
210
0
220
0
230
1
0
CIRCLE
5
157
100
AcDbEntity
8
0
100
AcDbCircle
10
-365
20
319.5
30
8.5897025794848149e-15
40
38.5
210
0
220
0
230
1
0
CIRCLE
5
158
100
AcDbEntity
8
0
100
AcDbCircle
10
-280
20
319.5
30
8.5897025794848149e-15
40
38.5
210
0
220
0
230
1
0
CIRCLE
5
159
100
AcDbEntity
8
0
100
AcDbCircle
10
-195
20
319.5
30
8.5897025794848149e-15
40
38.5
210
0
220
0
230
1
0
CIRCLE
5
160
100
AcDbEntity
8
0
100
AcDbCircle
10
-110
20
319.5
30
8.5897025794848149e-15
40
38.5
210
0
220
0
230
1
0
CIRCLE
5
161
100
AcDbEntity
8
0
100
AcDbCircle
10
-365
20
237.49999999999997
30
8.5897025794848149e-15
40
38.5
210
0
220
0
230
1
0
CIRCLE
5
162
100
AcDbEntity
8
0
100
AcDbCircle
10
-280
20
237.49999999999997
30
8.5897025794848149e-15
40
38.5
210
0
220
0
230
1
0
CIRCLE
5
163
100
AcDbEntity
8
0
100
AcDbCircle
10
-195
20
237.49999999999997
30
8.5897025794848149e-15
40
38.5
210
0
220
0
230
1
0
CIRCLE
5
164
100
AcDbEntity
8
0
100
AcDbCircle
10
-110
20
237.49999999999997
30
8.5897025794848149e-15
40
38.5
210
0
220
0
230
1
0
CIRCLE
5
165
100
AcDbEntity
8
0
100
AcDbCircle
10
-446
20
348.49999999999994
30
0
40
25
210
0
220
0
230
1
0
CIRCLE
5
166
100
AcDbEntity
8
0
100
AcDbCircle
10
-446
20
288.49999999999994
30
0
40
25
210
0
220
0
230
1
0
CIRCLE
5
167
100
AcDbEntity
8
0
100
AcDbCircle
10
-446
20
228.49999999999994
30
0
40
25
210
0
220
0
230
1
0
CIRCLE
5
168
100
AcDbEntity
8
0
100
AcDbCircle
10
-446
20
168.49999999999994
30
0
40
25
210
0
220
0
230
1
0
CIRCLE
5
169
100
AcDbEntity
8
0
100
AcDbCircle
10
-110
20
168.49999999999994
30
1.5845060088988e-16
40
25
210
0
220
0
230
1
0
LINE
5
170
100
AcDbEntity
8
0
100
AcDbLine
10
-110
20
237.49999999999997
30
8.5897025794848149e-15
11
-110
21
168.49999999999994
31
1.5845060088988e-16
0
LINE
5
171
100
AcDbEntity
8
0
100
AcDbLine
10
-446
20
168.49999999999994
30
0
11
-110
21
168.49999999999994
31
1.5845060088988e-16
0
CIRCLE
5
172
100
AcDbEntity
8
0
100
AcDbCircle
10
-194.99999999999997
20
168.5
30
7.8654798649833197e-15
40
25
210
0
220
0
230
1
0
LINE
5
173
100
AcDbEntity
8
0
100
AcDbLine
10
-195
20
237.49999999999997
30
8.5897025794848149e-15
11
-194.99999999999997
21
168.5
31
7.8654798649833197e-15
0
LINE
5
174
100
AcDbEntity
8
0
100
AcDbLine
10
-446
20
168.49999999999994
30
0
11
-194.99999999999997
21
168.5
31
7.8654798649833197e-15
0
CIRCLE
5
175
100
AcDbEntity
8
0
100
AcDbCircle
10
-400
20
354.5
30
0
40
1.5000000000000189
210
0
220
0
230
1
0
CIRCLE
5
176
100
AcDbEntity
8
0
100
AcDbCircle
10
-400
20
284.5
30
0
40
1.5000000000000189
210
0
220
0
230
1
0
CIRCLE
5
177
100
AcDbEntity
8
0
100
AcDbCircle
10
-330.00000000000006
20
284.49999999999994
30
0
40
1.5000000000000189
210
0
220
0
230
1
0
CIRCLE
5
178
100
AcDbEntity
8
0
100
AcDbCircle
10
-329.99999999999994
20
354.5
30
0
40
1.5000000000000189
210
0
220
0
230
1
0
CIRCLE
5
179
100
AcDbEntity
8
0
100
AcDbCircle
10
-244.99999999999994
20
354.5
30
0
40
1.5000000000000189
210
0
220
0
230
1
0
CIRCLE
5
180
100
AcDbEntity
8
0
100
AcDbCircle
10
-159.99999999999994
20
354.5
30
0
40
1.5000000000000189
210
0
220
0
230
1
0
CIRCLE
5
181
100
AcDbEntity
8
0
100
AcDbCircle
10
-74.999999999999929
20
354.5
30
0
40
1.5000000000000189
210
0
220
0
230
1
0
CIRCLE
5
182
100
AcDbEntity
8
0
100
AcDbCircle
10
-329.99999999999994
20
272.5
30
0
40
1.5000000000000189
210
0
220
0
230
1
0
CIRCLE
5
183
100
AcDbEntity
8
0
100
AcDbCircle
10
-244.99999999999994
20
272.5
30
0
40
1.5000000000000189
210
0
220
0
230
1
0
CIRCLE
5
184
100
AcDbEntity
8
0
100
AcDbCircle
10
-159.99999999999994
20
272.5
30
0
40
1.5000000000000189
210
0
220
0
230
1
0
CIRCLE
5
185
100
AcDbEntity
8
0
100
AcDbCircle
10
-74.999999999999929
20
272.5
30
0
40
1.5000000000000189
210
0
220
0
230
1
0
CIRCLE
5
186
100
AcDbEntity
8
0
100
AcDbCircle
10
-245.00000000000006
20
284.49999999999994
30
0
40
1.5000000000000189
210
0
220
0
230
1
0
CIRCLE
5
187
100
AcDbEntity
8
0
100
AcDbCircle
10
-315
20
284.5
30
0
40
1.5000000000000189
210
0
220
0
230
1
0
CIRCLE
5
188
100
AcDbEntity
8
0
100
AcDbCircle
10
-160.00000000000006
20
284.49999999999994
30
0
40
1.5000000000000189
210
0
220
0
230
1
0
CIRCLE
5
189
100
AcDbEntity
8
0
100
AcDbCircle
10
-230
20
284.5
30
0
40
1.5000000000000189
210
0
220
0
230
1
0
CIRCLE
5
190
100
AcDbEntity
8
0
100
AcDbCircle
10
-75.000000000000071
20
284.49999999999994
30
0
40
1.5000000000000189
210
0
220
0
230
1
0
CIRCLE
5
191
100
AcDbEntity
8
0
100
AcDbCircle
10
-145
20
284.5
30
0
40
1.5000000000000189
210
0
220
0
230
1
0
CIRCLE
5
192
100
AcDbEntity
8
0
100
AcDbCircle
10
-330.00000000000006
20
202.49999999999994
30
0
40
1.5000000000000189
210
0
220
0
230
1
0
CIRCLE
5
193
100
AcDbEntity
8
0
100
AcDbCircle
10
-400
20
202.5
30
0
40
1.5000000000000189
210
0
220
0
230
1
0
CIRCLE
5
194
100
AcDbEntity
8
0
100
AcDbCircle
10
-245.00000000000006
20
202.49999999999994
30
0
40
1.5000000000000189
210
0
220
0
230
1
0
CIRCLE
5
195
100
AcDbEntity
8
0
100
AcDbCircle
10
-315
20
202.5
30
0
40
1.5000000000000189
210
0
220
0
230
1
0
CIRCLE
5
196
100
AcDbEntity
8
0
100
AcDbCircle
10
-160.00000000000006
20
202.49999999999994
30
0
40
1.5000000000000189
210
0
220
0
230
1
0
CIRCLE
5
197
100
AcDbEntity
8
0
100
AcDbCircle
10
-230
20
202.5
30
0
40
1.5000000000000189
210
0
220
0
230
1
0
CIRCLE
5
198
100
AcDbEntity
8
0
100
AcDbCircle
10
-75.000000000000071
20
202.49999999999994
30
0
40
1.5000000000000189
210
0
220
0
230
1
0
CIRCLE
5
199
100
AcDbEntity
8
0
100
AcDbCircle
10
-145
20
202.5
30
0
40
1.5000000000000189
210
0
220
0
230
1
0
CIRCLE
5
200
100
AcDbEntity
8
0
100
AcDbCircle
10
-315
20
354.5
30
0
40
1.5000000000000189
210
0
220
0
230
1
0
CIRCLE
5
201
100
AcDbEntity
8
0
100
AcDbCircle
10
-230
20
354.5
30
0
40
1.5000000000000189
210
0
220
0
230
1
0
CIRCLE
5
202
100
AcDbEntity
8
0
100
AcDbCircle
10
-145
20
354.5
30
0
40
1.5000000000000189
210
0
220
0
230
1
0
CIRCLE
5
203
100
AcDbEntity
8
0
100
AcDbCircle
10
-400
20
272.5
30
0
40
1.5000000000000189
210
0
220
0
230
1
0
CIRCLE
5
204
100
AcDbEntity
8
0
100
AcDbCircle
10
-315
20
272.5
30
0
40
1.5000000000000189
210
0
220
0
230
1
0
CIRCLE
5
205
100
AcDbEntity
8
0
100
AcDbCircle
10
-230
20
272.5
30
0
40
1.5000000000000189
210
0
220
0
230
1
0
CIRCLE
5
206
100
AcDbEntity
8
0
100
AcDbCircle
10
-145
20
272.5
30
0
40
1.5000000000000189
210
0
220
0
230
1
0
CIRCLE
5
207
100
AcDbEntity
8
0
100
AcDbCircle
10
-469
20
371.49999999999989
30
0
40
1.5000000000000104
210
0
220
0
230
1
0
CIRCLE
5
208
100
AcDbEntity
8
0
100
AcDbCircle
10
-469
20
325.50000000000006
30
0
40
1.5000000000000104
210
0
220
0
230
1
0
CIRCLE
5
209
100
AcDbEntity
8
0
100
AcDbCircle
10
-423
20
325.49999999999989
30
0
40
1.5000000000000104
210
0
220
0
230
1
0
CIRCLE
5
210
100
AcDbEntity
8
0
100
AcDbCircle
10
-423.00000000000006
20
371.49999999999989
30
0
40
1.5000000000000104
210
0
220
0
230
1
0
CIRCLE
5
211
100
AcDbEntity
8
0
100
AcDbCircle
10
-469
20
311.49999999999989
30
0
40
1.5000000000000104
210
0
220
0
230
1
0
CIRCLE
5
212
100
AcDbEntity
8
0
100
AcDbCircle
10
-423.00000000000006
20
311.49999999999989
30
0
40
1.5000000000000104
210
0
220
0
230
1
0
CIRCLE
5
213
100
AcDbEntity
8
0
100
AcDbCircle
10
-469
20
265.50000000000006
30
0
40
1.5000000000000104
210
0
220
0
230
1
0
CIRCLE
5
214
100
AcDbEntity
8
0
100
AcDbCircle
10
-423
20
265.49999999999989
30
0
40
1.5000000000000104
210
0
220
0
230
1
0
CIRCLE
5
215
100
AcDbEntity
8
0
100
AcDbCircle
10
-469
20
251.49999999999991
30
0
40
1.5000000000000104
210
0
220
0
230
1
0
CIRCLE
5
216
100
AcDbEntity
8
0
100
AcDbCircle
10
-423.00000000000006
20
251.49999999999991
30
0
40
1.5000000000000104
210
0
220
0
230
1
0
CIRCLE
5
217
100
AcDbEntity
8
0
100
AcDbCircle
10
-469
20
205.50000000000006
30
0
40
1.5000000000000104
210
0
220
0
230
1
0
CIRCLE
5
218
100
AcDbEntity
8
0
100
AcDbCircle
10
-423
20
205.49999999999989
30
0
40
1.5000000000000104
210
0
220
0
230
1
0
CIRCLE
5
219
100
AcDbEntity
8
0
100
AcDbCircle
10
-469
20
191.49999999999991
30
0
40
1.5000000000000104
210
0
220
0
230
1
0
CIRCLE
5
220
100
AcDbEntity
8
0
100
AcDbCircle
10
-423.00000000000006
20
191.49999999999991
30
0
40
1.5000000000000104
210
0
220
0
230
1
0
CIRCLE
5
221
100
AcDbEntity
8
0
100
AcDbCircle
10
-469
20
145.50000000000006
30
0
40
1.5000000000000104
210
0
220
0
230
1
0
CIRCLE
5
222
100
AcDbEntity
8
0
100
AcDbCircle
10
-423
20
145.49999999999989
30
0
40
1.5000000000000104
210
0
220
0
230
1
0
CIRCLE
5
223
100
AcDbEntity
8
0
100
AcDbCircle
10
-217.99999999999997
20
191.50000000000003
30
0
40
1.5000000000000135
210
0
220
0
230
1
0
CIRCLE
5
224
100
AcDbEntity
8
0
100
AcDbCircle
10
-217.99999999999997
20
145.50000000000006
30
0
40
1.5000000000000135
210
0
220
0
230
1
0
CIRCLE
5
225
100
AcDbEntity
8
0
100
AcDbCircle
10
-171.99999999999991
20
145.49999999999997
30
0
40
1.5000000000000135
210
0
220
0
230
1
0
CIRCLE
5
226
100
AcDbEntity
8
0
100
AcDbCircle
10
-171.99999999999994
20
191.50000000000003
30
0
40
1.5000000000000135
210
0
220
0
230
1
0
CIRCLE
5
227
100
AcDbEntity
8
0
100
AcDbCircle
10
-133
20
191.49999999999994
30
0
40
1.4999999999999938
210
0
220
0
230
1
0
CIRCLE
5
228
100
AcDbEntity
8
0
100
AcDbCircle
10
-133
20
145.49999999999994
30
0
40
1.4999999999999938
210
0
220
0
230
1
0
CIRCLE
5
229
100
AcDbEntity
8
0
100
AcDbCircle
10
-87.000000000000014
20
145.49999999999994
30
0
40
1.4999999999999938
210
0
220
0
230
1
0
CIRCLE
5
230
100
AcDbEntity
8
0
100
AcDbCircle
10
-87
20
191.49999999999994
30
0
40
1.4999999999999938
210
0
220
0
230
1
0
LWPOLYLINE
5
231
100
AcDbEntity
8
0
100
AcDbPolyline
90
4
70
1
43
0.0
10
-563
20
235
10
-528
20
235
10
-528
20
75
10
-563
20
75
0
ENDSEC
0
SECTION
2
OBJECTS
0
DICTIONARY
5
C
100
AcDbDictionary
3
ACAD_GROUP
350
D
3
ACAD_MLINESTYLE
350
17
0
DICTIONARY
5
D
100
AcDbDictionary
0
DICTIONARY
5
1A
330
C
100
AcDbDictionary
0
DICTIONARY
5
17
100
AcDbDictionary
0
ENDSEC
0
EOF
